Release Title: Peter Pan	 
Release Date: 25 December 2003
Release Length: 01:53:21
Storyline:
In stifling Edwardian London, Wendy Darling mesmerizes her brothers every night with bedtime tales
of swordplay, swashbuckling and the fearsome Captain Hook. But the children become the heroes
of an even greater story, when Peter Pan flies into their nursery one night and leads
them over moonlit rooftops through a galaxy of stars and to the lush jungles of Neverland.
Wendy and her brothers join Peter and the Lost Boys in an exhilarating life--free
of grown-up rules--while also facing the inevitable showdown
with Hook and his bloodthirsty pirates.


cast

Jason Isaacs 	... 	Mr. Darling / Captain Hook
Jeremy Sumpter 	... 	Peter Pan
Rachel Hurd-Wood 	... 	Wendy Darling
Lynn Redgrave 	... 	Aunt Millicent
Richard Briers 	... 	Smee
Olivia Williams 	... 	Mrs. Darling
Geoffrey Palmer 	... 	Sir Edward Quiller Couch
Harry Newell 	... 	John Darling
Freddie Popplewell 	... 	Michael Darling
Ludivine Sagnier 	... 	Tink
Theodore Chester 	... 	Slightly
Rupert Simonian 	... 	Tootles
George MacKay 	... 	Curly
Harry Eden 	... 	Nibs
Patrick Gooch 	... 	Twin 


Video
ID                               : 1
Format                           : AVC
Format/Info                      : Advanced Video Codec
Format profile                   : High@L4.1
Format settings, CABAC           : Yes
Format settings, ReFrames        : 8 frames
Muxing mode                      : Container profile=Unknown@4.1
Codec ID                         : V_MPEG4/ISO/AVC
Duration                         : 1h 48mn
Bit rate                         : 2 405 Kbps
Width                            : 1 280 pixels
Height                           : 532 pixels
Display aspect ratio             : 2.40:1
Frame rate                       : 25.000 fps
Original frame rate              : 23.976 fps
Color space                      : YUV
Chroma subsampling               : 4:2:0
Bit depth                        : 8 bits
Scan type                        : Progressive
Bits/(Pixel*Frame)               : 0.141
Stream size                      : 1.86 GiB (85%)
Writing library                  : x264 core 80 r1376M 3feaec2

Audio #1
ID                               : 2
Format                           : MPEG Audio
Format version                   : Version 1
Format profile                   : Layer 3
Mode                             : Joint stereo
Mode extension                   : MS Stereo
Codec ID                         : A_MPEG/L3
Codec ID/Hint                    : MP3
Duration                         : 1h 48mn
Bit rate mode                    : Constant
Bit rate                         : 128 Kbps
Channel(s)                       : 2 channels
Sampling rate                    : 48.0 KHz
Stream size                      : 99.6 MiB (4%)
Title                            : Eng_by_Harshad
Writing library                  : LAME3.90.3

Audio #2
ID                               : 3
Format                           : MPEG Audio
Format version                   : Version 1
Format profile                   : Layer 3
Codec ID                         : A_MPEG/L3
Codec ID/Hint                    : MP3
Duration                         : 1h 48mn
Bit rate mode                    : Variable
Bit rate                         : 244 Kbps
Channel(s)                       : 2 channels
Sampling rate                    : 48.0 KHz
Stream size                      : 190 MiB (8%)
Title                            : Hindi_by_Harshad
Writing library                  : ÿÿÿÿÿÿÿÿÿ
Encoding settings                : -m  -lowpass 25.5
Language                         : Hindi


Screenshots
 
http://img828.imageshack.us/img828/3834/78435053.jpg 
http://img859.imageshack.us/img859/2848/61743977.jpg 
http://img863.imageshack.us/img863/9157/49662448.jpg 
http://img850.imageshack.us/img850/2779/93863113.jpg 
http://img703.imageshack.us/img703/2059/51505509.jpg 
http://img858.imageshack.us/img858/2518/32048733.jpg